<?xml version="1.0" encoding="utf-8"?>
<!-- Generator: Adobe Illustrator 26.2.1, SVG Export Plug-In . SVG Version: 6.00 Build 0)  -->
<svg version="1.1" id="Layer_1" xmlns="http://www.w3.org/2000/svg" xmlns:xlink="http://www.w3.org/1999/xlink" x="0px" y="0px"
	 viewBox="0 0 20 20" style="enable-background:new 0 0 20 20;" xml:space="preserve">
<path d="M0,9.98c0-1.82,0.44-3.49,1.33-5.03c0.89-1.54,2.1-2.75,3.62-3.65c1.52-0.89,3.19-1.34,4.99-1.34c1.8,0,3.47,0.45,4.99,1.34
	c1.52,0.89,2.73,2.11,3.62,3.65c0.89,1.54,1.33,3.21,1.33,5.03s-0.44,3.49-1.33,5.03c-0.89,1.54-2.1,2.75-3.62,3.65
	C13.41,19.55,11.75,20,9.95,20c-1.8,0-3.47-0.45-4.99-1.34c-1.52-0.89-2.73-2.11-3.62-3.65C0.44,13.47,0,11.8,0,9.98z M1.65,9.98
	c0,2.08,0.7,3.92,2.09,5.51c0.64-1.26,1.64-2.45,3.02-3.59c1.38-1.14,2.73-1.85,4.04-2.14c-0.2-0.47-0.39-0.89-0.58-1.26
	c-2.28,0.73-4.75,1.1-7.4,1.1c-0.52,0-0.9-0.01-1.15-0.02c0,0.05,0,0.12-0.01,0.2C1.65,9.86,1.65,9.93,1.65,9.98z M1.91,7.92
	C2.2,7.94,2.63,7.96,3.2,7.96c2.21,0,4.32-0.3,6.31-0.9C8.5,5.25,7.39,3.75,6.19,2.55c-1.05,0.53-1.95,1.28-2.7,2.22
	C2.74,5.72,2.21,6.77,1.91,7.92z M4.87,16.57c1.5,1.18,3.19,1.76,5.07,1.76c0.98,0,1.96-0.19,2.92-0.56
	c-0.27-2.28-0.78-4.49-1.55-6.63c-1.22,0.27-2.45,0.94-3.69,2.02C6.39,14.25,5.47,15.38,4.87,16.57z M7.92,1.91
	c1.17,1.22,2.25,2.73,3.24,4.55c1.8-0.76,3.16-1.73,4.08-2.91c-1.54-1.28-3.3-1.92-5.29-1.92C9.27,1.63,8.59,1.72,7.92,1.91z
	 M11.87,7.88c0.2,0.43,0.42,0.97,0.68,1.62c0.98-0.09,2.05-0.14,3.2-0.14c0.82,0,1.64,0.02,2.45,0.06
	c-0.11-1.82-0.76-3.43-1.95-4.85C15.39,5.87,13.93,6.97,11.87,7.88z M13.05,10.9c0.68,1.98,1.13,4.01,1.37,6.09
	c1.05-0.68,1.9-1.56,2.57-2.62c0.66-1.07,1.06-2.22,1.19-3.47c-0.97-0.07-1.85-0.1-2.65-0.1C14.81,10.8,13.98,10.84,13.05,10.9z"/>
</svg>
