<?xml version="1.0" encoding="utf-8"?>
<!-- Generator: Adobe Illustrator 26.2.1, SVG Export Plug-In . SVG Version: 6.00 Build 0)  -->
<svg version="1.1" id="Layer_1" xmlns="http://www.w3.org/2000/svg" xmlns:xlink="http://www.w3.org/1999/xlink" x="0px" y="0px"
	 viewBox="0 0 20 20" style="enable-background:new 0 0 20 20;" xml:space="preserve">
<path d="M18.11,0.08H1.89c-1,0-1.8,0.81-1.8,1.8v16.23c0,1,0.81,1.8,1.8,1.8h16.23c1,0,1.8-0.81,1.8-1.8V1.89
	C19.92,0.89,19.11,0.08,18.11,0.08z M6.35,16.31H3.69V7.75h2.66V16.31z M5,6.53c-0.86,0-1.55-0.7-1.55-1.55S4.14,3.43,5,3.43
	c0.85,0,1.55,0.7,1.55,1.55C6.55,5.84,5.85,6.53,5,6.53z M16.31,16.31h-2.66v-4.16c0-0.99-0.02-2.27-1.38-2.27
	c-1.38,0-1.6,1.08-1.6,2.2v4.23H8.02V7.75h2.55v1.17h0.04c0.36-0.67,1.22-1.38,2.52-1.38c2.69,0,3.19,1.77,3.19,4.08
	C16.31,11.62,16.31,16.31,16.31,16.31z"/>
</svg>
