<?xml version="1.0" encoding="utf-8"?>
<!-- Generator: Adobe Illustrator 26.2.1, SVG Export Plug-In . SVG Version: 6.00 Build 0)  -->
<svg version="1.1" id="Layer_1" xmlns="http://www.w3.org/2000/svg" xmlns:xlink="http://www.w3.org/1999/xlink" x="0px" y="0px"
	 viewBox="0 0 100 52.5" style="enable-background:new 0 0 100 52.5;" xml:space="preserve">
<style type="text/css">
	.st0{fill:#181819;}
</style>
<polygon class="st0" points="15.3,18.3 11.8,9.7 10,9.7 10,21.4 11.8,21.4 11.8,14.8 14.4,21.4 16.1,21.4 18.7,14.8 18.7,21.4 
	20.5,21.4 20.5,9.7 18.8,9.7 "/>
<path class="st0" d="M31.4,19.4h4.4l0.6,1.9h1.9L34.5,9.7h-1.7l-3.9,11.7h1.9L31.4,19.4z M33.6,12.9l1.4,4.2l0.2,0.5h-3.1l0.2-0.5
	L33.6,12.9z"/>
<path class="st0" d="M69.2,21.4c2.3,0,4.2-1.9,4.2-4.2V9.7h-1.8v7.5c0,1.3-1.1,2.3-2.3,2.3s-2.3-1.1-2.3-2.3V9.7H65v7.5
	C65,19.5,66.9,21.4,69.2,21.4"/>
<path class="st0" d="M49.5,17.4h2.6l1.8,4.1h2L54,17.1c1-0.4,2.2-1.4,2.2-3.6c0-3.2-2.5-3.9-3.4-3.9h-0.6h-2.7h-1.8v1.8v4.1v1.8v4.1
	h1.8V17.4z M49.5,11.5h2.7h0.6c0.2,0,1.6,0.1,1.6,2c0,1.8-1.2,2-1.6,2h-0.7l0,0h-2.7V11.5z"/>
<polygon class="st0" points="33.6,39.4 30.1,30.7 28.3,30.7 28.3,42.4 30.2,42.4 30.2,35.9 32.7,42.4 34.4,42.4 37,35.9 37,42.4 
	38.9,42.4 38.9,30.7 37.1,30.7 "/>
<path class="st0" d="M50.9,30.7L47,42.4H49l0.6-1.9h4.4l0.6,1.9h1.9l-3.9-11.7H50.9z M53.3,38.6h-3.1l0.2-0.5l1.4-4.2l1.4,4.2
	L53.3,38.6z"/>
<path class="st0" d="M87.6,30.7v7.5c0,1.3-1.1,2.3-2.3,2.3c-1.3,0-2.3-1.1-2.3-2.3v-7.5h-1.8v7.5c0,2.3,1.9,4.2,4.2,4.2
	s4.2-1.9,4.2-4.2v-7.5H87.6z"/>
<path class="st0" d="M73.4,34.5c0-3.2-2.5-3.9-3.4-3.9h-0.6l0,0h-2.7h-1.8v1.8v4.1v1.8v4.1h1.8v-4.1h2.6l1.8,4.1h2l-1.9-4.3
	C72.2,37.7,73.4,36.7,73.4,34.5 M70,36.6h-0.7h-2.7v-4.1h2.7H70c0.2,0,1.6,0.1,1.6,2C71.6,36.4,70.4,36.6,70,36.6"/>
</svg>
