<svg xmlns="http://www.w3.org/2000/svg">
	<symbol id="icon-search" viewBox="0 0 18 18"><path fill="currentColor" d="M12.8 11.4c.9-1.2 1.4-2.7 1.4-4.3C14.2 3.2 11 0 7.1 0S0 3.2 0 7.1c0 3.9 3.2 7.1 7.1 7.1 1.6 0 3.1-.5 4.3-1.4l5.2 5.2 1.4-1.4-5.2-5.2zM2 7.1C2 4.3 4.3 2 7.1 2s5.1 2.3 5.1 5.1-2.3 5.1-5.1 5.1S2 9.9 2 7.1z"/></symbol>
	<symbol id="icon-view-default" viewBox="0 0 18 18"><g fill="currentColor"><path d="M8 11H0V0h8v11zM18 5h-8V0h8v5zM8 18H0v-5h8v5zM18 18h-8V7h8v11z"/></g></symbol>
	<symbol id="icon-view-alt" viewBox="0 0 18 18"><g fill="currentColor"><path d="M8 8H0V0h8v8zM18 8h-8V0h8v8zM8 18H0v-8h8v8zM18 18h-8v-8h8v8z"/></g></symbol>
	<symbol id="icon-view-full" viewBox="0 0 18 18"><g fill="currentColor"><path d="M18 8H0V0h18v8zM18 18H0v-8h18v8z"/></g></symbol>
	<symbol id="icon-facebook" viewBox="0 0 9 19"><path fill="currentColor" d="M6.7 3.6H9V0H6.3c-3.3.1-4 2.1-4 4.1V6H0v3.5h2.2V19h3.4V9.5h2.8L8.9 6H5.6V4.9c0-.7.4-1.3 1.1-1.3z"/></symbol>
	<symbol id="icon-twitter" viewBox="0 0 17.9 15"><path fill="currentColor" d="M17.9 1.8c-.3.2-1.2.5-2 .6.5-.3 1.3-1.3 1.5-2.1-.5.3-1.7.8-2.3.8C14.4.5 13.5 0 12.4 0c-2 0-3.7 1.7-3.7 3.8 0 .3 0 .6.1.8-2.8-.1-6-1.5-7.8-4-1.1 2-.2 4.2 1.1 5-.4 0-1.2-.1-1.6-.4 0 1.3.6 3.1 2.9 3.7-.5.4-1.3.3-1.6.3.1 1.1 1.6 2.6 3.3 2.6-.6.7-2.6 2-5.1 1.6 1.7 1 3.7 1.6 5.8 1.6 6 0 10.6-5 10.3-11.1v-.1c.6-.4 1.3-1.1 1.8-2z"/></symbol>
	<symbol id="icon-pinterest" viewBox="0 0 18 18"><path fill="currentColor" d="M2.3 0h13.4C17 0 18 .9 18 2.3v13.4c0 1.4-1 2.3-2.3 2.3H2.3C1 18 0 17.1 0 15.7V2.3C0 .9 1 0 2.3 0zm10.8 2c-.4 0-.8.4-.8.8v1.9c0 .4.4.8.8.8h2c.4 0 .8-.4.8-.8V2.8c.1-.4-.3-.8-.8-.8h-2zM16 7.6h-1.6c.2.5.2 1 .2 1.5 0 3-2.5 5.4-5.6 5.4-3.1 0-5.6-2.4-5.6-5.4 0-.5.1-1.1.2-1.5H2v7.6c0 .4.3.7.7.7h12.5c.4 0 .7-.3.7-.7l.1-7.6zM9 5.5C7 5.5 5.4 7 5.4 9c0 1.9 1.6 3.5 3.6 3.5s3.6-1.6 3.6-3.5c0-2-1.6-3.5-3.6-3.5z"/></symbol>
	<symbol id="icon-tumblr" viewBox="0 0 11 19"><path fill="currentColor" d="M8.6 15.9c-1.6 0-2.3-1.3-2.3-2.2V7.8h4.1v-3h-4V.1S4.7 0 3.5 0C3.5 4.1 0 4.9 0 4.9v2.8h2.3v7C2.3 17.1 4.4 19 7 19s4-1.1 4-1.1v-3.1c0 .1-.8 1.1-2.4 1.1z"/></symbol>
	<symbol id="icon-menu" viewBox="0 0 274.5 224.5"><g fill="currentColor"><path d="M274 53.8H.5V.5H274v53.3zM274 138.9H.5V85.6H274v53.3zM274 224H.5v-53.3H274V224z"/></g></symbol>
	<symbol id="bar" viewBox="0 0 274.5 54.3"><path fill="currentColor" d="M274 53.8H.5V.5H274v53.3z"/></symbol>
	<symbol id="arrow" viewBox="0 0 38 14"><path fill="currentColor" d="M31 0l-1.4 1.4L34.2 6H0v2h34.2l-4.6 4.6L31 14l7-7-7-7z"/></symbol>
	<symbol id="refresh" viewBox="0 0 19 16"><path fill="currentColor" d="M9.4 6.2l5.9 4.4L19 4.4l-1.7-1L15.7 6c-.9-3.5-4-6-7.7-6-4.4 0-8 3.6-8 8s3.6 8 8 8c2.1 0 4.1-.8 5.6-2.3l-1.4-1.4C11.1 13.3 9.6 14 8 14c-3.3 0-6-2.7-6-6s2.7-6 6-6c3 0 5.4 2.2 5.9 5l-3.3-2.4-1.2 1.6z"/></symbol>
	<symbol id="icon-linkedin" viewBox="0 0 20 20"><path d="M18.11,0.08H1.89c-1,0-1.8,0.81-1.8,1.8v16.23c0,1,0.81,1.8,1.8,1.8h16.23c1,0,1.8-0.81,1.8-1.8V1.89
	C19.92,0.89,19.11,0.08,18.11,0.08z M6.35,16.31H3.69V7.75h2.66V16.31z M5,6.53c-0.86,0-1.55-0.7-1.55-1.55S4.14,3.43,5,3.43
	c0.85,0,1.55,0.7,1.55,1.55C6.55,5.84,5.85,6.53,5,6.53z M16.31,16.31h-2.66v-4.16c0-0.99-0.02-2.27-1.38-2.27
	c-1.38,0-1.6,1.08-1.6,2.2v4.23H8.02V7.75h2.55v1.17h0.04c0.36-0.67,1.22-1.38,2.52-1.38c2.69,0,3.19,1.77,3.19,4.08
	C16.31,11.62,16.31,16.31,16.31,16.31z"/></symbol>
	<symbol id="icon-threads" viewBox="0 0 20 20"><path d="M14.8,9.27c-0.09-0.04-0.17-0.08-0.26-0.12c-0.15-2.84-1.71-4.47-4.32-4.49c-0.01,0-0.02,0-0.04,0
	c-1.56,0-2.86,0.67-3.66,1.88l1.44,0.98c0.6-0.91,1.53-1.1,2.22-1.1c0.01,0,0.02,0,0.02,0c0.86,0.01,1.51,0.26,1.93,0.74
	c0.31,0.35,0.51,0.84,0.61,1.46c-0.76-0.13-1.59-0.17-2.47-0.12C7.8,8.66,6.2,10.1,6.31,12.11c0.05,1.02,0.56,1.9,1.43,2.47
	c0.73,0.48,1.68,0.72,2.66,0.67c1.3-0.07,2.32-0.57,3.03-1.47c0.54-0.69,0.88-1.58,1.03-2.7c0.62,0.37,1.08,0.86,1.33,1.45
	c0.43,1,0.46,2.65-0.89,4c-1.18,1.18-2.6,1.69-4.74,1.7c-2.38-0.02-4.17-0.78-5.34-2.26c-1.09-1.39-1.66-3.4-1.68-5.97
	c0.02-2.57,0.59-4.58,1.68-5.97c1.17-1.49,2.97-2.25,5.34-2.26c2.39,0.02,4.22,0.78,5.43,2.28c0.59,0.73,1.04,1.65,1.34,2.73
	l1.68-0.45C18.26,5,17.7,3.86,16.93,2.91C15.37,1,13.1,0.02,10.17,0h-0.01C7.23,0.02,4.98,1,3.47,2.92
	C2.13,4.63,1.43,7.01,1.41,9.99l0,0.01l0,0.01c0.02,2.98,0.72,5.36,2.06,7.07C4.98,19,7.23,19.98,10.16,20h0.01
	c2.6-0.02,4.43-0.7,5.94-2.21c1.98-1.97,1.92-4.45,1.26-5.97C16.91,10.74,16.02,9.85,14.8,9.27z M10.31,13.49
	c-1.09,0.06-2.22-0.43-2.27-1.47c-0.04-0.78,0.55-1.64,2.34-1.74c0.2-0.01,0.41-0.02,0.6-0.02c0.65,0,1.26,0.06,1.81,0.18
	C12.58,13.01,11.38,13.43,10.31,13.49z"/></symbol>
	<symbol id="icon-dribbble" viewBox="0 0 20 20"><path d="M0,9.98c0-1.82,0.44-3.49,1.33-5.03c0.89-1.54,2.1-2.75,3.62-3.65c1.52-0.89,3.19-1.34,4.99-1.34c1.8,0,3.47,0.45,4.99,1.34
	c1.52,0.89,2.73,2.11,3.62,3.65c0.89,1.54,1.33,3.21,1.33,5.03s-0.44,3.49-1.33,5.03c-0.89,1.54-2.1,2.75-3.62,3.65
	C13.41,19.55,11.75,20,9.95,20c-1.8,0-3.47-0.45-4.99-1.34c-1.52-0.89-2.73-2.11-3.62-3.65C0.44,13.47,0,11.8,0,9.98z M1.65,9.98
	c0,2.08,0.7,3.92,2.09,5.51c0.64-1.26,1.64-2.45,3.02-3.59c1.38-1.14,2.73-1.85,4.04-2.14c-0.2-0.47-0.39-0.89-0.58-1.26
	c-2.28,0.73-4.75,1.1-7.4,1.1c-0.52,0-0.9-0.01-1.15-0.02c0,0.05,0,0.12-0.01,0.2C1.65,9.86,1.65,9.93,1.65,9.98z M1.91,7.92
	C2.2,7.94,2.63,7.96,3.2,7.96c2.21,0,4.32-0.3,6.31-0.9C8.5,5.25,7.39,3.75,6.19,2.55c-1.05,0.53-1.95,1.28-2.7,2.22
	C2.74,5.72,2.21,6.77,1.91,7.92z M4.87,16.57c1.5,1.18,3.19,1.76,5.07,1.76c0.98,0,1.96-0.19,2.92-0.56
	c-0.27-2.28-0.78-4.49-1.55-6.63c-1.22,0.27-2.45,0.94-3.69,2.02C6.39,14.25,5.47,15.38,4.87,16.57z M7.92,1.91
	c1.17,1.22,2.25,2.73,3.24,4.55c1.8-0.76,3.16-1.73,4.08-2.91c-1.54-1.28-3.3-1.92-5.29-1.92C9.27,1.63,8.59,1.72,7.92,1.91z
	 M11.87,7.88c0.2,0.43,0.42,0.97,0.68,1.62c0.98-0.09,2.05-0.14,3.2-0.14c0.82,0,1.64,0.02,2.45,0.06
	c-0.11-1.82-0.76-3.43-1.95-4.85C15.39,5.87,13.93,6.97,11.87,7.88z M13.05,10.9c0.68,1.98,1.13,4.01,1.37,6.09
	c1.05-0.68,1.9-1.56,2.57-2.62c0.66-1.07,1.06-2.22,1.19-3.47c-0.97-0.07-1.85-0.1-2.65-0.1C14.81,10.8,13.98,10.84,13.05,10.9z"/>
	</symbol>
</svg>