<?xml version="1.0" encoding="utf-8"?>
<!-- Generator: Adobe Illustrator 26.2.1, SVG Export Plug-In . SVG Version: 6.00 Build 0)  -->
<svg version="1.1" id="Layer_1" xmlns="http://www.w3.org/2000/svg" xmlns:xlink="http://www.w3.org/1999/xlink" x="0px" y="0px"
	 viewBox="0 0 20 20" style="enable-background:new 0 0 20 20;" xml:space="preserve">
<path d="M14.8,9.27c-0.09-0.04-0.17-0.08-0.26-0.12c-0.15-2.84-1.71-4.47-4.32-4.49c-0.01,0-0.02,0-0.04,0
	c-1.56,0-2.86,0.67-3.66,1.88l1.44,0.98c0.6-0.91,1.53-1.1,2.22-1.1c0.01,0,0.02,0,0.02,0c0.86,0.01,1.51,0.26,1.93,0.74
	c0.31,0.35,0.51,0.84,0.61,1.46c-0.76-0.13-1.59-0.17-2.47-0.12C7.8,8.66,6.2,10.1,6.31,12.11c0.05,1.02,0.56,1.9,1.43,2.47
	c0.73,0.48,1.68,0.72,2.66,0.67c1.3-0.07,2.32-0.57,3.03-1.47c0.54-0.69,0.88-1.58,1.03-2.7c0.62,0.37,1.08,0.86,1.33,1.45
	c0.43,1,0.46,2.65-0.89,4c-1.18,1.18-2.6,1.69-4.74,1.7c-2.38-0.02-4.17-0.78-5.34-2.26c-1.09-1.39-1.66-3.4-1.68-5.97
	c0.02-2.57,0.59-4.58,1.68-5.97c1.17-1.49,2.97-2.25,5.34-2.26c2.39,0.02,4.22,0.78,5.43,2.28c0.59,0.73,1.04,1.65,1.34,2.73
	l1.68-0.45C18.26,5,17.7,3.86,16.93,2.91C15.37,1,13.1,0.02,10.17,0h-0.01C7.23,0.02,4.98,1,3.47,2.92
	C2.13,4.63,1.43,7.01,1.41,9.99l0,0.01l0,0.01c0.02,2.98,0.72,5.36,2.06,7.07C4.98,19,7.23,19.98,10.16,20h0.01
	c2.6-0.02,4.43-0.7,5.94-2.21c1.98-1.97,1.92-4.45,1.26-5.97C16.91,10.74,16.02,9.85,14.8,9.27z M10.31,13.49
	c-1.09,0.06-2.22-0.43-2.27-1.47c-0.04-0.78,0.55-1.64,2.34-1.74c0.2-0.01,0.41-0.02,0.6-0.02c0.65,0,1.26,0.06,1.81,0.18
	C12.58,13.01,11.38,13.43,10.31,13.49z"/>
</svg>
