<?xml version="1.0" encoding="utf-8"?>
<!-- Generator: Adobe Illustrator 26.2.1, SVG Export Plug-In . SVG Version: 6.00 Build 0)  -->
<svg version="1.1" id="Layer_1" xmlns="http://www.w3.org/2000/svg" xmlns:xlink="http://www.w3.org/1999/xlink" x="0px" y="0px"
	 viewBox="0 0 283.5 283.5" style="enable-background:new 0 0 283.5 283.5;" xml:space="preserve">
<style type="text/css">
	.st0{opacity:0.3;}
	.st1{fill:#FF9CC3;}
	.st2{fill:#B358FB;}
	.st3{fill:#FF9365;}
	.st4{fill:#FFF06C;}
	.st5{fill:#8CFF8A;}
	.st6{fill:#6775F5;}
	.st7{fill:#89F1FF;}
</style>
<g class="st0">
	<g>
		<path class="st1" d="M237.5,157.2c-28.8,11.4-71.8,4-88.8-19.1c-17-23.3-7.8-62.4,14.5-91.3c22.4-28.8,57.9-47.4,82.1-39.1
			c24.3,8.2,37.3,43.1,36.5,75.6C280.9,115.7,266.4,145.9,237.5,157.2z"/>
	</g>
	<g>
		<path class="st2" d="M212.4,16.6c8.5,12.2,6.4,32.3,4.6,50.4c-1.8,18.2-3.3,34.4-11.7,54.1c-8.5,19.6-23.8,42.7-44.1,47.9
			c-20.3,5.1-45.6-7.7-59.9-27.3c-14.4-19.6-18-46.2-14.4-68.9c3.5-22.8,14.3-41.8,28.6-54.2C130,6.2,148.1,0.6,166.5,0
			C185-0.4,204.1,4.2,212.4,16.6z"/>
	</g>
	<g>
		<path class="st3" d="M202.5,283.4c-12.5,1.2-25.8-8.6-40.5-18.1c-14.6-9.4-30.6-18.7-35.3-32.1c-4.8-13.5,1.8-31.1,13.6-40.1
			c11.9-8.9,29-9.3,40.4-25c11.4-15.8,16.9-47.1,30.1-58.2c13.2-11,34-1.5,46.9,13.7c13,15.4,18,36.5,21.8,56.3
			c3.9,19.9,6.6,38.3-0.6,51.2c-7.1,12.7-23.9,19.8-38.2,29.4C226.6,270,214.9,282.2,202.5,283.4z"/>
	</g>
	<g>
		<path class="st4" d="M217.1,167c12.1,28.6,12.8,64.4,1,86.3c-11.7,21.7-35.9,29.6-60.8,30.2c-24.8,0.5-50.5-6.3-59.9-26.3
			c-9.4-19.9-2.5-53.3,10.3-82.5c12.8-29.2,31.5-54.5,52.7-56.3C181.6,116.5,205,138.2,217.1,167z"/>
	</g>
	<g>
		<path class="st5" d="M149.5,153.5c20,16.6,25.7,55.3,12.2,78c-13.3,22.8-45.8,29.8-71.8,38.2s-45.4,17.7-60.2,12.1
			c-14.6-5.6-24.5-26.6-27-46.9C0.3,214.6,5.1,195,16,180.7c10.9-14.5,28-23.7,53.5-31C95.2,142.4,129.6,136.9,149.5,153.5z"/>
	</g>
	<g>
		<path class="st6" d="M151.8,21.8c10.7,17.9-2.8,49.8-20.4,96.6C114.2,165,92.4,226.5,66,229.2c-26.7,2.7-57.8-53.3-64.6-93.9
			s10.7-66.1,26.4-86.7C43.2,27.9,57,12.1,81.4,6C105.9,0.1,140.8,3.8,151.8,21.8z"/>
	</g>
	<g>
		<path class="st7" d="M153.5,76.7c15.5-0.8,31,12.3,30.7,27.5c-0.2,15.1-16,32.4-23.8,50.5c-7.7,18.1-7.3,37.3-14.8,54.8
			c-7.7,17.7-23.2,34-33.3,25.1c-10-8.9-14.3-43-20.5-61.1c-6.2-18.1-14.2-20.5-23.3-28.2c-9-7.7-18.9-20.7-17-29.7
			c1.8-9.2,15.7-14.4,26.8-15.2c11.2-0.7,19.8,3.1,31.9-2.5C122.4,92.3,138,77.5,153.5,76.7z"/>
	</g>
</g>
</svg>
