<svg width="124" height="12" viewBox="0 0 124 12" fill="none" xmlns="http://www.w3.org/2000/svg">
<path d="M71.876 8.26859L68.656 0.314301H67V11.0114H68.748V5.06859L71.048 11.0114H72.612L75.004 5.06859V11.0114H76.752V0.314301H75.096L71.876 8.26859Z" fill="#313131"/>
<path d="M87.792 0.314301L84.204 11.0114H86.044L86.596 9.2743H90.644L91.196 11.0114H92.944L89.356 0.314301H87.792ZM90 7.53716H87.148L87.332 7.08001L88.62 3.24002L89.908 7.08001L90 7.53716Z" fill="#313131"/>
<path d="M121.556 0.314301V7.17144C121.556 8.36001 120.544 9.2743 119.44 9.2743C118.244 9.2743 117.324 8.26859 117.324 7.17144V0.314301H115.668V7.17144C115.668 9.2743 117.416 11.0114 119.532 11.0114C121.648 11.0114 123.396 9.2743 123.396 7.17144V0.314301H121.556Z" fill="#313131"/>
<path d="M108.492 3.78858C108.492 0.86287 106.192 0.22287 105.364 0.22287H104.812H102.328H100.672V1.86859V5.61716V7.26287V11.0114H102.328V7.26287H104.72L106.376 11.0114H108.216L106.468 7.08001C107.388 6.7143 108.492 5.80001 108.492 3.78858ZM105.364 5.70858H104.72H102.236V1.96001H104.72H105.364C105.548 1.96001 106.836 2.05144 106.836 3.78858C106.836 5.52573 105.732 5.70858 105.364 5.70858Z" fill="#313131"/>
<path d="M5.07601 7.95429L1.85601 0.0914307H0.200012V10.7886H1.85601V4.75429L4.24801 10.7886H5.81201L8.20401 4.75429V10.7886H9.86001V0.0914307H8.29601L5.07601 7.95429Z" fill="#313131"/>
<path d="M19.888 8.96H23.936L24.488 10.6971H26.236L22.74 0.0914307H21.176L17.588 10.7886H19.336L19.888 8.96ZM21.912 3.01714L23.2 6.85715L23.384 7.31429H20.532L20.716 6.85715L21.912 3.01714Z" fill="#313131"/>
<path d="M54.664 10.7886C56.78 10.7886 58.528 9.05143 58.528 6.94857V0.0914307H56.872V6.94857C56.872 8.13715 55.86 9.05143 54.756 9.05143C53.652 9.05143 52.64 8.04572 52.64 6.94857V0.0914307H50.8V6.94857C50.8 9.05143 52.548 10.7886 54.664 10.7886Z" fill="#313131"/>
<path d="M36.54 7.13143H38.932L40.588 10.88H42.428L40.68 6.85714C41.6 6.49143 42.704 5.57714 42.704 3.56571C42.704 0.64 40.404 0 39.576 0H39.024H36.54H34.884V1.64571V5.39429V7.04V10.7886H36.54V7.13143ZM36.54 1.73714H39.024H39.576C39.76 1.73714 41.048 1.82857 41.048 3.56571C41.048 5.21143 39.944 5.39429 39.576 5.39429H38.932H36.448V1.73714H36.54Z" fill="#313131"/>
</svg>
