<?xml version="1.0" encoding="utf-8"?>
<!-- Generator: Adobe Illustrator 21.1.0, SVG Export Plug-In . SVG Version: 6.00 Build 0)  -->
<svg version="1.1" id="Layer_1" xmlns="http://www.w3.org/2000/svg" xmlns:xlink="http://www.w3.org/1999/xlink" x="0px" y="0px"
	 viewBox="0 0 1366 564" style="enable-background:new 0 0 1366 564;" xml:space="preserve">
<style type="text/css">
	.st0{fill:#0A0A0A;}
</style>
<polygon class="st0" points="90.3,149.3 30.2,1.2 -0.3,1.2 -0.3,201.7 31.3,201.7 31.3,89.4 75.7,201.7 105.1,201.7 149.2,89.4 
	149.2,201.7 180.8,201.7 180.8,1.2 150.4,1.2 "/>
<path class="st0" d="M368.3,168.8h74.8l10.9,32.9h33.3L420.7,1.2h-29.9l-66.6,200.5h33.3L368.3,168.8z M405.6,56.4l23.9,71.5
	l3.1,9.2h-53.7l3.1-9.2L405.6,56.4z"/>
<path class="st0" d="M1017.6,201.7c39.9,0,72.1-32.2,72.1-72.1V1.2h-31.6v128.5c0,22.2-18.2,40.4-40.4,40.4
	c-22.2,0-40.4-18.2-40.4-40.4V1.2h-31.6v128.5C945.5,169.5,977.7,201.7,1017.6,201.7"/>
<path class="st0" d="M678,133h45.1l30.7,69.8h34.5l-32.7-74.1c17.8-7.1,38-24.5,38-62.2c0-54.6-42.4-66.5-58.8-66.5H724h-46h-31.6
	v31.6v69.8V133v69.8H678V133z M678,31.6h46h10.9c2.8,0,27.1,1,27.1,34.9c0,31.7-20.6,34.7-26.8,34.9H724l0,0h-46V31.6z"/>
<polygon class="st0" points="405.2,511.3 345.1,363.2 314.6,363.2 314.6,563.7 346.2,563.7 346.2,451.4 390.7,563.7 420,563.7 
	464.2,451.4 464.2,563.7 495.8,563.7 495.8,363.2 465.3,363.2 "/>
<path class="st0" d="M702.9,363.2l-66.6,200.5h33.3l10.9-32.9h74.8l10.9,32.9h33.3l-66.6-200.5H702.9z M744.7,499.1H691l3.1-9.2
	l23.6-71.5l23.9,71.5L744.7,499.1z"/>
<path class="st0" d="M1334.4,363.2v128.5c0,22.2-18.2,40.4-40.4,40.4c-22.2,0-40.4-18.2-40.4-40.4V363.2H1222v128.5
	c0,39.9,32.2,72.1,72.1,72.1s72.1-32.2,72.1-72.1V363.2H1334.4z"/>
<path class="st0" d="M1090,428.5c0-54.6-42.4-66.5-58.8-66.5h-10.9l0,0h-46h-31.6v31.6v69.8V495v69.8h31.6V495h45.1l30.7,69.8h34.5
	l-32.7-74.1C1069.8,483.6,1090,466.3,1090,428.5 M1031.6,463.4h-11.3h-46v-69.8h46h10.9c2.8,0,27.1,1,27.1,34.9
	C1058.3,460.2,1037.7,463.2,1031.6,463.4"/>
</svg>
